# xmcd
#
# Track frame offsets: 
#        150
#        13280
#        31909
#        54786
#        69962
#        84560
#        98875
#
# Disc length: 1637 seconds
#
# Revision: 0
# Processed by: cddbd v1.5.2PL0 Copyright (c) Steve Scherf et al.
# Submitted via: ExactAudioCopy v1.1
#
DISCID=4c066307
DTITLE=Matthew Pickering - Up At The Bunkers
DYEAR=2012
DGENRE=
TTITLE0=Up At The Bunkers
TTITLE1=Hands Up
TTITLE2=If You Cut Your Hair
TTITLE3=Like An Eyelash
TTITLE4=For Mr Satie
TTITLE5=Natalia's Song (Precious Cargo)
TTITLE6=Fumble For Change
EXTD=
EXTT0=
EXTT1=
EXTT2=
EXTT3=
EXTT4=
EXTT5=
EXTT6=
PLAYORDER=
